<?xml version="1.0" standalone="no"?>
<!DOCTYPE svg PUBLIC "-//W3C//DTD SVG 20010904//EN"
 "http://www.w3.org/TR/2001/REC-SVG-20010904/DTD/svg10.dtd">
<svg version="1.0" xmlns="http://www.w3.org/2000/svg"
 width="16.000000pt" height="16.000000pt" viewBox="0 0 16.000000 16.000000"
 preserveAspectRatio="xMidYMid meet">
<metadata>
Created by potrace 1.11, written by Peter Selinger 2001-2013
</metadata>
<g transform="translate(0.000000,16.000000) scale(0.012308,-0.012308)"
fill="#000000" stroke="none">
<path d="M566 1293 c7 -2 0 -16 -17 -33 -24 -24 -28 -33 -20 -53 5 -14 7 -28
3 -31 -3 -4 -7 -19 -9 -34 -6 -53 -11 -84 -16 -89 -3 -2 -40 0 -82 5 -83 9
-159 2 -178 -17 -11 -11 -4 -53 17 -103 6 -13 3 -16 -16 -12 -22 5 -22 5 -4
-10 15 -12 22 -13 27 -4 5 8 11 7 22 -4 9 -9 46 -18 89 -23 l73 -8 -55 -13
c-30 -7 -65 -13 -78 -14 -13 0 -21 -4 -18 -8 3 -5 -6 -15 -19 -22 -22 -12 -24
-18 -19 -49 4 -20 11 -39 17 -42 5 -4 10 -18 10 -33 -1 -14 3 -24 7 -21 4 2
12 -7 19 -21 14 -31 14 -37 1 -29 -6 3 -7 -1 -4 -9 3 -9 13 -16 20 -16 21 0
28 -28 13 -47 -12 -15 -12 -16 4 -10 13 5 20 -1 31 -26 14 -34 6 -57 -20 -57
-8 0 -14 -4 -14 -10 0 -5 6 -7 14 -4 8 3 17 0 22 -7 4 -7 3 -14 -4 -17 -7 -2
-8 -11 -2 -28 7 -18 6 -24 -4 -24 -8 0 -16 -7 -20 -15 -8 -21 -52 -19 -76 5
-26 26 -29 100 -4 100 13 0 14 3 5 13 -6 8 -8 17 -4 21 4 4 -1 4 -12 0 -18 -7
-18 -6 -6 9 7 9 17 14 22 11 5 -3 9 3 10 13 0 10 3 13 6 6 5 -13 33 -18 33 -7
0 4 -8 13 -18 20 -9 7 -12 14 -5 14 8 0 8 7 0 31 -14 37 -62 66 -81 50 -7 -6
-17 -7 -21 -3 -5 4 -5 2 -2 -5 4 -6 2 -13 -5 -15 -6 -2 -13 -13 -15 -24 -6
-33 -8 -39 -17 -53 -6 -9 -5 -12 2 -7 6 4 11 -1 11 -11 0 -10 2 -38 6 -63 3
-25 6 -51 7 -58 1 -7 7 -11 14 -8 14 5 47 -51 38 -65 -3 -5 3 -6 12 -2 11 4
15 2 11 -4 -9 -15 59 -24 89 -13 25 10 25 9 25 -43 0 -96 4 -147 12 -147 5 0
5 -6 1 -12 -6 -10 -4 -10 7 -1 17 17 33 17 26 0 -3 -9 9 -12 49 -9 30 1 64 -3
75 -9 15 -8 19 -8 15 0 -4 6 0 11 8 11 18 0 21 -15 6 -25 -5 -3 -6 -13 -3 -22
5 -12 3 -14 -8 -9 -9 5 -8 3 2 -6 9 -7 14 -19 12 -25 -3 -8 4 -13 15 -13 20 0
35 32 36 74 1 17 9 21 50 23 l49 3 -6 -50 -6 -50 32 0 c19 0 27 3 20 8 -8 5
-12 25 -10 50 2 39 4 42 25 37 12 -3 22 -2 22 2 0 10 68 9 77 -1 3 -3 0 -6 -7
-6 -7 0 -11 -2 -8 -5 8 -8 58 17 58 29 1 6 3 51 5 101 3 50 5 99 5 110 1 18 6
20 40 17 33 -3 44 1 73 30 19 18 37 37 38 43 2 5 12 8 23 7 10 -2 16 1 12 7
-4 6 -1 19 6 30 9 15 9 23 -1 35 -10 12 -10 19 2 38 27 42 28 74 6 102 -22 28
-66 35 -87 14 -15 -15 -16 -90 0 -106 19 -19 20 -80 2 -117 -16 -35 -44 -51
-79 -46 -29 4 -40 18 -40 54 -1 18 -4 38 -8 44 -4 7 -4 25 -1 40 6 24 56 133
84 185 36 65 49 148 28 165 -7 6 -56 15 -108 21 -52 6 -104 14 -114 18 -14 5
-17 4 -12 -4 5 -9 -13 -12 -66 -13 -144 -3 -220 -8 -226 -13 -3 -3 -17 -6 -31
-6 -21 0 -23 2 -11 10 13 8 12 10 -5 12 -11 1 34 5 100 9 66 4 138 10 160 14
30 5 36 4 25 -4 -12 -9 -10 -11 13 -11 15 0 27 4 27 8 0 4 27 14 60 20 33 7
80 21 104 31 45 20 56 42 56 110 0 15 5 32 12 39 19 19 -46 15 -133 -7 -41
-10 -81 -19 -89 -19 -8 0 -26 -3 -40 -6 -24 -5 -27 -1 -51 72 -14 42 -27 84
-30 92 -9 30 -35 47 -79 53 -25 2 -40 3 -34 0z"/>
<path d="M968 893 c7 -3 16 -2 19 1 4 3 -2 6 -13 5 -11 0 -14 -3 -6 -6z"/>
<path d="M240 830 c0 -5 7 -10 15 -10 8 0 15 5 15 10 0 6 -7 10 -15 10 -8 0
-15 -4 -15 -10z"/>
<path d="M1125 770 c-3 -5 -1 -10 4 -10 6 0 11 5 11 10 0 6 -2 10 -4 10 -3 0
-8 -4 -11 -10z"/>
<path d="M1045 757 c-4 -10 -5 -21 -1 -24 10 -10 18 4 13 24 -4 17 -4 17 -12
0z"/>
<path d="M1107 689 c7 -7 15 -10 18 -7 3 3 -2 9 -12 12 -14 6 -15 5 -6 -5z"/>
<path d="M967 563 c-4 -3 -7 -11 -7 -17 0 -6 5 -5 12 2 6 6 9 14 7 17 -3 3 -9
2 -12 -2z"/>
<path d="M1120 400 c0 -5 5 -10 11 -10 5 0 7 5 4 10 -3 6 -8 10 -11 10 -2 0
-4 -4 -4 -10z"/>
<path d="M990 299 c0 -5 5 -7 10 -4 6 3 10 8 10 11 0 2 -4 4 -10 4 -5 0 -10
-5 -10 -11z"/>
<path d="M360 196 c0 -9 5 -16 10 -16 6 0 10 4 10 9 0 6 -4 13 -10 16 -5 3
-10 -1 -10 -9z"/>
<path d="M961 194 c0 -11 3 -14 6 -6 3 7 2 16 -1 19 -3 4 -6 -2 -5 -13z"/>
<path d="M665 30 c-3 -5 -1 -10 4 -10 6 0 11 5 11 10 0 6 -2 10 -4 10 -3 0 -8
-4 -11 -10z"/>
<path d="M490 10 c8 -5 22 -9 30 -9 10 0 8 3 -5 9 -27 12 -43 12 -25 0z"/>
</g>
</svg>
